<svg width="96" height="96" viewBox="0 0 96 96" fill="none" xmlns="http://www.w3.org/2000/svg">
<circle cx="48" cy="48" r="48" fill="#F7F7F7"/>
<path d="M63.4667 67.2L58.6667 45.3333L68 36C72 32 73.3333 26.6667 72 24C69.3333 22.6667 64 24 60 28L50.6667 37.3333L28.8 32.5333C27.4667 32.2667 26.4 32.8 25.8667 33.8667L25.0667 35.2C24.5333 36.5333 24.8 37.8667 25.8667 38.6667L40 48L34.6667 56H26.6667L24 58.6667L32 64L37.3333 72L40 69.3333V61.3333L48 56L57.3333 70.1333C58.1333 71.2 59.4667 71.4667 60.8 70.9333L62.1333 70.4C63.2 69.6 63.7333 68.5333 63.4667 67.2Z" stroke="#39527A" stroke-width="2" stroke-linecap="round" stroke-linejoin="round"/>
</svg>
