<svg width="96" height="96" viewBox="0 0 96 96" fill="none" xmlns="http://www.w3.org/2000/svg">
<circle cx="48" cy="48" r="48" fill="#F7F7F7"/>
<path d="M53.3335 64V32C53.3335 30.5855 52.7716 29.2289 51.7714 28.2287C50.7712 27.2285 49.4147 26.6666 48.0002 26.6666H26.6668C25.2523 26.6666 23.8958 27.2285 22.8956 28.2287C21.8954 29.2289 21.3335 30.5855 21.3335 32V61.3333C21.3335 62.0405 21.6144 62.7188 22.1145 63.2189C22.6146 63.719 23.2929 64 24.0002 64H29.3335" stroke="#39527A" stroke-width="2" stroke-linecap="round" stroke-linejoin="round"/>
<path d="M56 64H40" stroke="#39527A" stroke-width="2" stroke-linecap="round" stroke-linejoin="round"/>
<path d="M66.6668 64H72.0002C72.7074 64 73.3857 63.7191 73.8858 63.219C74.3859 62.7189 74.6668 62.0406 74.6668 61.3334V51.6C74.6658 50.9949 74.4589 50.4081 74.0802 49.936L64.8002 38.336C64.5508 38.0237 64.2343 37.7715 63.8743 37.5979C63.5143 37.4243 63.1198 37.3339 62.7202 37.3334H53.3335" stroke="#39527A" stroke-width="2" stroke-linecap="round" stroke-linejoin="round"/>
<path d="M61.3333 69.3333C64.2789 69.3333 66.6667 66.9455 66.6667 64C66.6667 61.0544 64.2789 58.6666 61.3333 58.6666C58.3878 58.6666 56 61.0544 56 64C56 66.9455 58.3878 69.3333 61.3333 69.3333Z" stroke="#39527A" stroke-width="2" stroke-linecap="round" stroke-linejoin="round"/>
<path d="M34.6668 69.3333C37.6123 69.3333 40.0002 66.9455 40.0002 64C40.0002 61.0544 37.6123 58.6666 34.6668 58.6666C31.7213 58.6666 29.3335 61.0544 29.3335 64C29.3335 66.9455 31.7213 69.3333 34.6668 69.3333Z" stroke="#39527A" stroke-width="2" stroke-linecap="round" stroke-linejoin="round"/>
</svg>
