<svg width="96" height="96" viewBox="0 0 96 96" fill="none" xmlns="http://www.w3.org/2000/svg">
<g clip-path="url(#clip0_32_240)">
<path d="M48 96C21.5325 96 0 74.4675 0 48C0 21.5325 21.5325 0 48 0C74.4675 0 96 21.5325 96 48C96 74.4675 74.4675 96 48 96Z" fill="#FE0050"/>
<path d="M48 0V96C74.4675 96 96 74.4675 96 48C96 21.5325 74.4675 0 48 0Z" fill="#E10555"/>
<path d="M48 80.0625C30.3206 80.0625 15.9375 65.6794 15.9375 48C15.9375 30.3206 30.3206 15.9375 48 15.9375C65.6794 15.9375 80.0625 30.3206 80.0625 48C80.0625 65.6794 65.6794 80.0625 48 80.0625Z" fill="#D9E7F3"/>
<path d="M48 15.9375V80.0625C65.6794 80.0625 80.0625 65.6794 80.0625 48C80.0625 30.3206 65.6794 15.9375 48 15.9375Z" fill="#C8D4DF"/>
<path d="M48 63.1875C39.6255 63.1875 32.8125 56.3745 32.8125 48C32.8125 39.6255 39.6255 32.8125 48 32.8125C56.3745 32.8125 63.1875 39.6255 63.1875 48C63.1875 56.3745 56.3745 63.1875 48 63.1875Z" fill="#FE0050"/>
<path d="M48 32.8125V63.1875C56.3745 63.1875 63.1875 56.3745 63.1875 48C63.1875 39.6255 56.3745 32.8125 48 32.8125Z" fill="#E10555"/>
<path d="M48 50.8125C47.28 50.8125 46.56 50.5378 46.0116 49.9884C44.9128 48.8906 44.9128 47.1094 46.0116 46.0115L66.6943 25.3284C67.7923 24.23 69.5736 24.23 70.6714 25.3284C71.7701 26.4264 71.7701 28.2071 70.6714 29.3057L49.9884 49.9884C49.7277 50.2501 49.4178 50.4576 49.0765 50.599C48.7353 50.7405 48.3694 50.813 48 50.8125Z" fill="#2D2D55"/>
<path d="M70.6715 25.3286L46.0115 49.9886C46.5601 50.5378 47.2801 50.8125 48.0001 50.8125C48.7201 50.8125 49.4401 50.5378 49.9885 49.9884L70.6717 29.3057C71.77 28.2077 71.77 26.4264 70.6717 25.3286H70.6715Z" fill="#0A0A48"/>
<path d="M79.6874 31.0575C79.609 31.0575 79.5299 31.0539 79.4508 31.0481L68.447 30.12C67.0801 30.0043 65.9956 28.9203 65.8805 27.5537L64.9518 16.5491C64.9175 16.1413 64.9726 15.7309 65.1133 15.3466C65.254 14.9623 65.4768 14.6133 65.7663 14.324L77.6982 2.3921C78.0773 2.01293 78.5568 1.75001 79.0803 1.63432C79.6039 1.51862 80.1495 1.55498 80.6531 1.73909C81.1566 1.92321 81.597 2.24742 81.9225 2.67352C82.2479 3.09962 82.4447 3.60985 82.4898 4.1441L83.2177 12.7815L91.8558 13.5103C92.3901 13.5555 92.9003 13.7524 93.3265 14.0778C93.7527 14.4033 94.077 14.8437 94.2612 15.3472C94.4452 15.8508 94.4814 16.3964 94.3656 16.9198C94.2498 17.4432 93.9869 17.9227 93.6078 18.3017L81.6759 30.2336C81.1485 30.7611 80.4333 31.0575 79.6874 31.0577V31.0575Z" fill="#FFC300"/>
<path d="M91.8559 13.5103L83.2185 12.7815L66.6943 29.3057C67.1636 29.7759 67.7844 30.0645 68.4463 30.1202L79.4509 31.0481C79.53 31.0539 79.6084 31.0575 79.6875 31.0575C80.43 31.0575 81.1465 30.7631 81.676 30.2336L93.6079 18.3017C93.9871 17.9226 94.25 17.443 94.3658 16.9194C94.4815 16.3959 94.4453 15.8501 94.2613 15.3465C94.0769 14.8431 93.7525 14.4029 93.3264 14.0776C92.9003 13.7523 92.3901 13.5555 91.8559 13.5103Z" fill="#FAB400"/>
</g>
<defs>
<clipPath id="clip0_32_240">
<rect width="96" height="96" fill="white"/>
</clipPath>
</defs>
</svg>
